<svg xmlns="http://www.w3.org/2000/svg" fill-rule="evenodd" viewBox="0 0 100 100">
    <path d="M21.5 33a1.5 1.5 0 0 0-1.5 1.5v32a1.5 1.5 0 0 0 3 0v-32a1.5 1.5 0 0 0-1.5-1.5Zm8 0a1.5 1.5 0 0 0-1.5 1.5v32a1.5 1.5 0 0 0 3 0v-32a1.5 1.5 0 0 0-1.5-1.5Zm5 0a1.5 1.5 0 0 0-1.5 1.5v32a1.5 1.5 0 0 0 3 0v-32a1.5 1.5 0 0 0-1.5-1.5Zm29 0a1.5 1.5 0 0 0-1.5 1.5v32a1.5 1.5 0 0 0 3 0v-32a1.5 1.5 0 0 0-1.5-1.5Zm5 0a1.5 1.5 0 0 0-1.5 1.5v32a1.5 1.5 0 0 0 3 0v-32a1.5 1.5 0 0 0-1.5-1.5Zm-23 0a1.5 1.5 0 0 0-1.5 1.5v32a1.5 1.5 0 0 0 3 0v-32a1.5 1.5 0 0 0-1.5-1.5Zm10 0a1.5 1.5 0 0 0-1.5 1.5v32a1.5 1.5 0 0 0 3 0v-32a1.5 1.5 0 0 0-1.5-1.5ZM82 66.5v-32a1.5 1.5 0 0 0-3 0v32a1.5 1.5 0 0 0 3 0ZM10.5 38a1.5 1.5 0 0 0 1.5-1.5V28h8.5a1.5 1.5 0 0 0 0-3h-10A1.5 1.5 0 0 0 9 26.5v10a1.5 1.5 0 0 0 1.5 1.5Zm81-13h-10a1.5 1.5 0 0 0 0 3H90v8.5a1.5 1.5 0 0 0 3 0v-10a1.5 1.5 0 0 0-1.5-1.5Zm-71 49H12v-7.5a1.5 1.5 0 0 0-3 0v9a1.5 1.5 0 0 0 1.5 1.5h10a1.5 1.5 0 0 0 0-3Zm71-9a1.5 1.5 0 0 0-1.5 1.5V74h-8.5a1.5 1.5 0 0 0 0 3h10a1.5 1.5 0 0 0 1.5-1.5v-9a1.5 1.5 0 0 0-1.5-1.5Z"/>
</svg>
