<svg xmlns="http://www.w3.org/2000/svg" fill-rule="evenodd" viewBox="0 0 100 100">
    <path d="M83.586 80.217a1.502 1.502 0 0 0-2.093-.347c-6.764 4.844-14.846 7.404-23.372 7.404-18.992 0-34.812-12.96-38.002-29.961h43.53a1.5 1.5 0 0 0 0-3H19.69a34.238 34.238 0 0 1-.168-3.312c0-1.46.103-2.897.282-4.313h43.845a1.5 1.5 0 1 0 0-3H20.31c3.61-16.508 19.192-28.96 37.811-28.96 8.187 0 16.007 2.377 22.614 6.874a1.5 1.5 0 0 0 1.688-2.48c-7.107-4.837-15.511-7.394-24.302-7.394-20.29 0-37.224 13.789-40.865 31.96H8.967a1.5 1.5 0 1 0 0 3h7.811a37.26 37.26 0 0 0-.256 4.313 37.4 37.4 0 0 0 .159 3.312H8.967a1.5 1.5 0 1 0 0 3h8.1c3.209 18.664 20.393 32.961 41.055 32.961 9.157 0 17.843-2.754 25.118-7.965a1.5 1.5 0 0 0 .346-2.092z"/>
</svg>
