<svg xmlns="http://www.w3.org/2000/svg" fill-rule="evenodd" viewBox="0 0 100 100">
    <path d="M93.5 27H67.08a19.23 19.23 0 0 0-16.83 10.11A19.23 19.23 0 0 0 33.42 27H7a1.5 1.5 0 0 0-1.5 1.5v6.44a23.92 23.92 0 0 0 1.94 9.45l14.48 47.08a1.5 1.5 0 1 0 2.87-.88L13 52.41A24 24 0 0 0 29.56 59h4c4.17 0 9.82-2 13.72-4.77a5.11 5.11 0 0 1 5.89 0C57.1 57 62.74 59 66.92 59h4A24.08 24.08 0 0 0 95 34.94V28.5a1.5 1.5 0 0 0-1.5-1.5ZM92 34.94A21.08 21.08 0 0 1 70.94 56h-4a23.22 23.22 0 0 1-12-4.21 8 8 0 0 0-9.39 0 23.22 23.22 0 0 1-12 4.21h-4A21.08 21.08 0 0 1 8.5 34.94V30h24.92a16.18 16.18 0 0 1 15.4 11.44 1.5 1.5 0 0 0 2.87 0A16.18 16.18 0 0 1 67.08 30H92Z"/>
    <path d="M59.11 43.28c0 5.08 5.6 8.22 10.78 8.22 7.38 0 16-3.93 16-15a1.5 1.5 0 0 0-1.5-1.5h-17a8.29 8.29 0 0 0-8.28 8.28ZM67.39 38h15.42c-.39 3.69-2.53 10.5-12.92 10.5-3.68 0-7.78-2.14-7.78-5.22A5.29 5.29 0 0 1 67.39 38Zm-33.78-3h-17a1.5 1.5 0 0 0-1.5 1.5c0 11.07 8.62 15 16 15 5.18 0 10.78-3.14 10.78-8.22A8.29 8.29 0 0 0 33.61 35Zm-2.5 13.5c-10.39 0-12.52-6.81-12.92-10.5h15.42a5.29 5.29 0 0 1 5.28 5.28c0 3.08-4.1 5.22-7.78 5.22Z"/>
</svg>
