<svg xmlns="http://www.w3.org/2000/svg" fill-rule="evenodd" viewBox="0 0 100 100">
    <path d="M33.777 10.539c4.175 1.486 11.81 1.766 17 1.766 5.19 0 12.825-.28 17-1.766v7.185c-1.29.785-7.033 2.04-16.94 2.04-10.16 0-15.94-1.32-17.06-2.1v-7.126Zm-3-2.734c0-3.92 12.53-4.5 20-4.5 7.47 0 20 .58 20 4.5v9.98a1.605 1.605 0 0 1 0 .629v9.39c0 .064-.004.127-.012.19a20 20 0 0 1-39.976-.002 1.496 1.496 0 0 1-.012-.187v-9.71a1.51 1.51 0 0 1 0-.43v-9.86Zm3 13.088v6.46a17 17 0 0 0 34-.048v-6.408c-4.466 1.636-12.745 1.868-17 1.868-4.259 0-12.547-.232-17-1.872Zm17-11.588c-8.11 0-13.45-.8-15.84-1.5 2.39-.7 7.73-1.5 15.84-1.5s13.45.8 15.84 1.5c-2.39.7-7.73 1.5-15.84 1.5Zm-6.273 75a8.5 8.5 0 0 0-16.954 0h16.954Zm-19.96 0a11.5 11.5 0 0 1 22.966 0h32.847a30.61 30.61 0 0 0-18.58-26.88v5.38a1.5 1.5 0 0 1-1.5 1.5c-.146 0-.29-.02-.43-.06l-9.57-2.87-9.57 2.87a1.5 1.5 0 0 1-1.93-1.44v-5.286a30.68 30.68 0 0 0-18.34 26.786h4.107ZM38.777 54.28v-4.475a1.5 1.5 0 0 1 1.93-1.44l9.57 2.87 9.57-2.87a1.499 1.499 0 0 1 1.93 1.44v4.383a33.65 33.65 0 0 1 21.62 31.617 1.5 1.5 0 0 1-1.5 1.5h-63a1.5 1.5 0 0 1-1.5-1.5 33.72 33.72 0 0 1 21.38-31.525Zm-5 17.025h4.43a1.5 1.5 0 1 0 0-3h-4.43a1.5 1.5 0 1 0 0 3Zm16.93-12.94a1.49 1.49 0 0 0-.43-.06 1.49 1.49 0 0 0-.43.1l-8.07 2.42v-9l8.07 2.38c.28.084.58.084.86 0l8.07-2.42v9l-8.07-2.42Zm9.17-21.56a1.49 1.49 0 0 1-.75-.2l-5.2-3a1.498 1.498 0 0 1-.55-2.05 1.5 1.5 0 0 1 2.05-.55l5.2 3a1.5 1.5 0 0 1-.75 2.8Zm-19.114-.31a1.5 1.5 0 0 0 1.664.11l5.2-3a1.5 1.5 0 1 0-1.5-2.6l-5.2 3a1.5 1.5 0 0 0-.164 2.49Z"/>
</svg>
